<mxfile host="app.diagrams.net" agent="Mozilla/5.0 (Windows NT 10.0; Win64; x64) AppleWebKit/537.36 (KHTML, like Gecko) Chrome/129.0.0.0 Safari/537.36" version="24.7.17">
  <diagram name="페이지-1" id="golvGEoR-jXV2xR_ADtF">
    <mxGraphModel dx="5500" dy="3057" grid="0" gridSize="10" guides="1" tooltips="1" connect="1" arrows="1" fold="1" page="0" pageScale="1" pageWidth="827" pageHeight="1169" math="0" shadow="0">
      <root>
        <mxCell id="0" />
        <mxCell id="1" parent="0" />
        <mxCell id="FZH1acAaEFo7ZYyXT5wn-52" style="edgeStyle=none;curved=1;rounded=0;orthogonalLoop=1;jettySize=auto;html=1;fontSize=12;startSize=8;endSize=8;" parent="1" source="FZH1acAaEFo7ZYyXT5wn-1" target="FZH1acAaEFo7ZYyXT5wn-35" edge="1">
          <mxGeometry relative="1" as="geometry" />
        </mxCell>
        <mxCell id="FZH1acAaEFo7ZYyXT5wn-53" style="edgeStyle=none;curved=1;rounded=0;orthogonalLoop=1;jettySize=auto;html=1;fontSize=12;startSize=8;endSize=8;" parent="1" source="FZH1acAaEFo7ZYyXT5wn-1" target="FZH1acAaEFo7ZYyXT5wn-46" edge="1">
          <mxGeometry relative="1" as="geometry" />
        </mxCell>
        <mxCell id="FZH1acAaEFo7ZYyXT5wn-88" style="edgeStyle=none;curved=1;rounded=0;orthogonalLoop=1;jettySize=auto;html=1;fontSize=12;startSize=8;endSize=8;" parent="1" source="FZH1acAaEFo7ZYyXT5wn-1" target="FZH1acAaEFo7ZYyXT5wn-89" edge="1">
          <mxGeometry relative="1" as="geometry">
            <mxPoint x="348.0588666130516" y="-265.7647238338694" as="targetPoint" />
          </mxGeometry>
        </mxCell>
        <mxCell id="FZH1acAaEFo7ZYyXT5wn-1" value="Controller_factory" style="html=1;whiteSpace=wrap;fillColor=#d5e8d4;strokeColor=#82b366;" parent="1" vertex="1">
          <mxGeometry x="288" y="-103" width="110" height="50" as="geometry" />
        </mxCell>
        <mxCell id="FZH1acAaEFo7ZYyXT5wn-2" value="Controller_line1" style="html=1;whiteSpace=wrap;fillColor=#d5e8d4;strokeColor=#82b366;" parent="1" vertex="1">
          <mxGeometry x="-669" y="200" width="110" height="50" as="geometry" />
        </mxCell>
        <mxCell id="FZH1acAaEFo7ZYyXT5wn-8" value="Controller_process_1" style="html=1;whiteSpace=wrap;fillColor=#d5e8d4;strokeColor=#82b366;" parent="1" vertex="1">
          <mxGeometry x="-1020" y="437" width="144" height="50" as="geometry" />
        </mxCell>
        <mxCell id="FZH1acAaEFo7ZYyXT5wn-22" value="Controller_process_2" style="html=1;whiteSpace=wrap;fillColor=#d5e8d4;strokeColor=#82b366;" parent="1" vertex="1">
          <mxGeometry x="-842" y="437" width="144" height="50" as="geometry" />
        </mxCell>
        <mxCell id="FZH1acAaEFo7ZYyXT5wn-23" value="Controller_process_3" style="html=1;whiteSpace=wrap;fillColor=#d5e8d4;strokeColor=#82b366;" parent="1" vertex="1">
          <mxGeometry x="-681" y="434" width="144" height="50" as="geometry" />
        </mxCell>
        <mxCell id="FZH1acAaEFo7ZYyXT5wn-24" value="Controller_process_4" style="html=1;whiteSpace=wrap;fillColor=#d5e8d4;strokeColor=#82b366;" parent="1" vertex="1">
          <mxGeometry x="-518" y="437" width="144" height="50" as="geometry" />
        </mxCell>
        <mxCell id="FZH1acAaEFo7ZYyXT5wn-25" value="Controller_process_5" style="html=1;whiteSpace=wrap;fillColor=#d5e8d4;strokeColor=#82b366;" parent="1" vertex="1">
          <mxGeometry x="-345" y="448" width="144" height="50" as="geometry" />
        </mxCell>
        <mxCell id="FZH1acAaEFo7ZYyXT5wn-30" style="edgeStyle=none;curved=1;rounded=0;orthogonalLoop=1;jettySize=auto;html=1;fontSize=12;startSize=8;endSize=8;" parent="1" source="FZH1acAaEFo7ZYyXT5wn-35" target="FZH1acAaEFo7ZYyXT5wn-36" edge="1">
          <mxGeometry relative="1" as="geometry" />
        </mxCell>
        <mxCell id="FZH1acAaEFo7ZYyXT5wn-31" style="edgeStyle=none;curved=1;rounded=0;orthogonalLoop=1;jettySize=auto;html=1;fontSize=12;startSize=8;endSize=8;" parent="1" source="FZH1acAaEFo7ZYyXT5wn-35" target="FZH1acAaEFo7ZYyXT5wn-37" edge="1">
          <mxGeometry relative="1" as="geometry" />
        </mxCell>
        <mxCell id="FZH1acAaEFo7ZYyXT5wn-32" style="edgeStyle=none;curved=1;rounded=0;orthogonalLoop=1;jettySize=auto;html=1;fontSize=12;startSize=8;endSize=8;" parent="1" source="FZH1acAaEFo7ZYyXT5wn-35" target="FZH1acAaEFo7ZYyXT5wn-38" edge="1">
          <mxGeometry relative="1" as="geometry" />
        </mxCell>
        <mxCell id="FZH1acAaEFo7ZYyXT5wn-33" style="edgeStyle=none;curved=1;rounded=0;orthogonalLoop=1;jettySize=auto;html=1;fontSize=12;startSize=8;endSize=8;" parent="1" source="FZH1acAaEFo7ZYyXT5wn-35" target="FZH1acAaEFo7ZYyXT5wn-39" edge="1">
          <mxGeometry relative="1" as="geometry" />
        </mxCell>
        <mxCell id="FZH1acAaEFo7ZYyXT5wn-34" style="edgeStyle=none;curved=1;rounded=0;orthogonalLoop=1;jettySize=auto;html=1;fontSize=12;startSize=8;endSize=8;" parent="1" source="FZH1acAaEFo7ZYyXT5wn-35" target="FZH1acAaEFo7ZYyXT5wn-40" edge="1">
          <mxGeometry relative="1" as="geometry" />
        </mxCell>
        <mxCell id="FZH1acAaEFo7ZYyXT5wn-35" value="Controller_line2" style="html=1;whiteSpace=wrap;fillColor=#d5e8d4;strokeColor=#82b366;" parent="1" vertex="1">
          <mxGeometry x="291" y="204" width="110" height="50" as="geometry" />
        </mxCell>
        <mxCell id="FZH1acAaEFo7ZYyXT5wn-69" style="edgeStyle=none;curved=1;rounded=0;orthogonalLoop=1;jettySize=auto;html=1;fontSize=12;startSize=8;endSize=8;" parent="1" source="FZH1acAaEFo7ZYyXT5wn-36" target="FZH1acAaEFo7ZYyXT5wn-64" edge="1">
          <mxGeometry relative="1" as="geometry" />
        </mxCell>
        <mxCell id="FZH1acAaEFo7ZYyXT5wn-36" value="Controller_process_1" style="html=1;whiteSpace=wrap;fillColor=#d5e8d4;strokeColor=#82b366;" parent="1" vertex="1">
          <mxGeometry x="-65" y="446" width="144" height="50" as="geometry" />
        </mxCell>
        <mxCell id="FZH1acAaEFo7ZYyXT5wn-70" style="edgeStyle=none;curved=1;rounded=0;orthogonalLoop=1;jettySize=auto;html=1;fontSize=12;startSize=8;endSize=8;" parent="1" source="FZH1acAaEFo7ZYyXT5wn-37" target="FZH1acAaEFo7ZYyXT5wn-65" edge="1">
          <mxGeometry relative="1" as="geometry" />
        </mxCell>
        <mxCell id="FZH1acAaEFo7ZYyXT5wn-37" value="Controller_process_2" style="html=1;whiteSpace=wrap;fillColor=#d5e8d4;strokeColor=#82b366;" parent="1" vertex="1">
          <mxGeometry x="108" y="446" width="144" height="50" as="geometry" />
        </mxCell>
        <mxCell id="FZH1acAaEFo7ZYyXT5wn-71" style="edgeStyle=none;curved=1;rounded=0;orthogonalLoop=1;jettySize=auto;html=1;fontSize=12;startSize=8;endSize=8;" parent="1" source="FZH1acAaEFo7ZYyXT5wn-38" target="FZH1acAaEFo7ZYyXT5wn-66" edge="1">
          <mxGeometry relative="1" as="geometry" />
        </mxCell>
        <mxCell id="FZH1acAaEFo7ZYyXT5wn-38" value="Controller_process_3" style="html=1;whiteSpace=wrap;fillColor=#d5e8d4;strokeColor=#82b366;" parent="1" vertex="1">
          <mxGeometry x="278" y="446" width="144" height="50" as="geometry" />
        </mxCell>
        <mxCell id="FZH1acAaEFo7ZYyXT5wn-72" style="edgeStyle=none;curved=1;rounded=0;orthogonalLoop=1;jettySize=auto;html=1;fontSize=12;startSize=8;endSize=8;" parent="1" source="FZH1acAaEFo7ZYyXT5wn-39" target="FZH1acAaEFo7ZYyXT5wn-67" edge="1">
          <mxGeometry relative="1" as="geometry" />
        </mxCell>
        <mxCell id="FZH1acAaEFo7ZYyXT5wn-39" value="Controller_process_4" style="html=1;whiteSpace=wrap;fillColor=#d5e8d4;strokeColor=#82b366;" parent="1" vertex="1">
          <mxGeometry x="442" y="452" width="144" height="50" as="geometry" />
        </mxCell>
        <mxCell id="FZH1acAaEFo7ZYyXT5wn-73" style="edgeStyle=none;curved=1;rounded=0;orthogonalLoop=1;jettySize=auto;html=1;fontSize=12;startSize=8;endSize=8;" parent="1" source="FZH1acAaEFo7ZYyXT5wn-40" target="FZH1acAaEFo7ZYyXT5wn-68" edge="1">
          <mxGeometry relative="1" as="geometry" />
        </mxCell>
        <mxCell id="FZH1acAaEFo7ZYyXT5wn-40" value="Controller_process_5" style="html=1;whiteSpace=wrap;fillColor=#d5e8d4;strokeColor=#82b366;" parent="1" vertex="1">
          <mxGeometry x="606" y="452" width="144" height="50" as="geometry" />
        </mxCell>
        <mxCell id="FZH1acAaEFo7ZYyXT5wn-41" style="edgeStyle=none;curved=1;rounded=0;orthogonalLoop=1;jettySize=auto;html=1;fontSize=12;startSize=8;endSize=8;" parent="1" source="FZH1acAaEFo7ZYyXT5wn-46" target="FZH1acAaEFo7ZYyXT5wn-47" edge="1">
          <mxGeometry relative="1" as="geometry" />
        </mxCell>
        <mxCell id="FZH1acAaEFo7ZYyXT5wn-42" style="edgeStyle=none;curved=1;rounded=0;orthogonalLoop=1;jettySize=auto;html=1;fontSize=12;startSize=8;endSize=8;" parent="1" source="FZH1acAaEFo7ZYyXT5wn-46" target="FZH1acAaEFo7ZYyXT5wn-48" edge="1">
          <mxGeometry relative="1" as="geometry" />
        </mxCell>
        <mxCell id="FZH1acAaEFo7ZYyXT5wn-43" style="edgeStyle=none;curved=1;rounded=0;orthogonalLoop=1;jettySize=auto;html=1;fontSize=12;startSize=8;endSize=8;" parent="1" source="FZH1acAaEFo7ZYyXT5wn-46" target="FZH1acAaEFo7ZYyXT5wn-49" edge="1">
          <mxGeometry relative="1" as="geometry" />
        </mxCell>
        <mxCell id="FZH1acAaEFo7ZYyXT5wn-44" style="edgeStyle=none;curved=1;rounded=0;orthogonalLoop=1;jettySize=auto;html=1;fontSize=12;startSize=8;endSize=8;" parent="1" source="FZH1acAaEFo7ZYyXT5wn-46" target="FZH1acAaEFo7ZYyXT5wn-50" edge="1">
          <mxGeometry relative="1" as="geometry" />
        </mxCell>
        <mxCell id="FZH1acAaEFo7ZYyXT5wn-45" style="edgeStyle=none;curved=1;rounded=0;orthogonalLoop=1;jettySize=auto;html=1;fontSize=12;startSize=8;endSize=8;" parent="1" source="FZH1acAaEFo7ZYyXT5wn-46" target="FZH1acAaEFo7ZYyXT5wn-51" edge="1">
          <mxGeometry relative="1" as="geometry" />
        </mxCell>
        <mxCell id="FZH1acAaEFo7ZYyXT5wn-46" value="Controller_line3" style="html=1;whiteSpace=wrap;fillColor=#d5e8d4;strokeColor=#82b366;" parent="1" vertex="1">
          <mxGeometry x="1331" y="204" width="110" height="50" as="geometry" />
        </mxCell>
        <mxCell id="FZH1acAaEFo7ZYyXT5wn-80" style="edgeStyle=none;curved=1;rounded=0;orthogonalLoop=1;jettySize=auto;html=1;fontSize=12;startSize=8;endSize=8;" parent="1" source="FZH1acAaEFo7ZYyXT5wn-47" target="FZH1acAaEFo7ZYyXT5wn-74" edge="1">
          <mxGeometry relative="1" as="geometry" />
        </mxCell>
        <mxCell id="FZH1acAaEFo7ZYyXT5wn-47" value="Controller_process_1" style="html=1;whiteSpace=wrap;fillColor=#d5e8d4;strokeColor=#82b366;" parent="1" vertex="1">
          <mxGeometry x="988" y="446" width="144" height="50" as="geometry" />
        </mxCell>
        <mxCell id="FZH1acAaEFo7ZYyXT5wn-81" style="edgeStyle=none;curved=1;rounded=0;orthogonalLoop=1;jettySize=auto;html=1;fontSize=12;startSize=8;endSize=8;" parent="1" source="FZH1acAaEFo7ZYyXT5wn-48" target="FZH1acAaEFo7ZYyXT5wn-75" edge="1">
          <mxGeometry relative="1" as="geometry" />
        </mxCell>
        <mxCell id="FZH1acAaEFo7ZYyXT5wn-48" value="Controller_process_2" style="html=1;whiteSpace=wrap;fillColor=#d5e8d4;strokeColor=#82b366;" parent="1" vertex="1">
          <mxGeometry x="1148" y="446" width="144" height="50" as="geometry" />
        </mxCell>
        <mxCell id="FZH1acAaEFo7ZYyXT5wn-82" style="edgeStyle=none;curved=1;rounded=0;orthogonalLoop=1;jettySize=auto;html=1;entryX=0.5;entryY=0;entryDx=0;entryDy=0;fontSize=12;startSize=8;endSize=8;" parent="1" source="FZH1acAaEFo7ZYyXT5wn-49" target="FZH1acAaEFo7ZYyXT5wn-76" edge="1">
          <mxGeometry relative="1" as="geometry" />
        </mxCell>
        <mxCell id="FZH1acAaEFo7ZYyXT5wn-49" value="Controller_process_3" style="html=1;whiteSpace=wrap;fillColor=#d5e8d4;strokeColor=#82b366;" parent="1" vertex="1">
          <mxGeometry x="1318" y="446" width="144" height="50" as="geometry" />
        </mxCell>
        <mxCell id="FZH1acAaEFo7ZYyXT5wn-83" style="edgeStyle=none;curved=1;rounded=0;orthogonalLoop=1;jettySize=auto;html=1;fontSize=12;startSize=8;endSize=8;" parent="1" source="FZH1acAaEFo7ZYyXT5wn-50" target="FZH1acAaEFo7ZYyXT5wn-77" edge="1">
          <mxGeometry relative="1" as="geometry" />
        </mxCell>
        <mxCell id="FZH1acAaEFo7ZYyXT5wn-50" value="Controller_process_4" style="html=1;whiteSpace=wrap;fillColor=#d5e8d4;strokeColor=#82b366;" parent="1" vertex="1">
          <mxGeometry x="1471" y="446" width="144" height="50" as="geometry" />
        </mxCell>
        <mxCell id="FZH1acAaEFo7ZYyXT5wn-84" style="edgeStyle=none;curved=1;rounded=0;orthogonalLoop=1;jettySize=auto;html=1;fontSize=12;startSize=8;endSize=8;" parent="1" source="FZH1acAaEFo7ZYyXT5wn-51" target="FZH1acAaEFo7ZYyXT5wn-78" edge="1">
          <mxGeometry relative="1" as="geometry" />
        </mxCell>
        <mxCell id="FZH1acAaEFo7ZYyXT5wn-51" value="Controller_process_5" style="html=1;whiteSpace=wrap;fillColor=#d5e8d4;strokeColor=#82b366;" parent="1" vertex="1">
          <mxGeometry x="1638" y="446" width="144" height="50" as="geometry" />
        </mxCell>
        <mxCell id="FZH1acAaEFo7ZYyXT5wn-54" value="Robot_A" style="html=1;whiteSpace=wrap;fillColor=#ffe6cc;strokeColor=#d79b00;" parent="1" vertex="1">
          <mxGeometry x="-1049" y="684" width="144" height="50" as="geometry" />
        </mxCell>
        <mxCell id="FZH1acAaEFo7ZYyXT5wn-56" value="Robot_A" style="html=1;whiteSpace=wrap;fillColor=#ffe6cc;strokeColor=#d79b00;" parent="1" vertex="1">
          <mxGeometry x="-848" y="684" width="144" height="50" as="geometry" />
        </mxCell>
        <mxCell id="FZH1acAaEFo7ZYyXT5wn-57" value="Robot_A" style="html=1;whiteSpace=wrap;fillColor=#ffe6cc;strokeColor=#d79b00;" parent="1" vertex="1">
          <mxGeometry x="-683" y="699" width="144" height="50" as="geometry" />
        </mxCell>
        <mxCell id="FZH1acAaEFo7ZYyXT5wn-58" value="Robot_A" style="html=1;whiteSpace=wrap;fillColor=#ffe6cc;strokeColor=#d79b00;" parent="1" vertex="1">
          <mxGeometry x="-518" y="690" width="144" height="50" as="geometry" />
        </mxCell>
        <mxCell id="FZH1acAaEFo7ZYyXT5wn-59" value="Robot_A" style="html=1;whiteSpace=wrap;fillColor=#ffe6cc;strokeColor=#d79b00;" parent="1" vertex="1">
          <mxGeometry x="-333" y="690" width="144" height="50" as="geometry" />
        </mxCell>
        <mxCell id="FZH1acAaEFo7ZYyXT5wn-64" value="Robot_B" style="html=1;whiteSpace=wrap;fillColor=#ffe6cc;strokeColor=#d79b00;" parent="1" vertex="1">
          <mxGeometry x="-59" y="556" width="144" height="50" as="geometry" />
        </mxCell>
        <mxCell id="FZH1acAaEFo7ZYyXT5wn-65" value="Robot_B" style="html=1;whiteSpace=wrap;fillColor=#ffe6cc;strokeColor=#d79b00;" parent="1" vertex="1">
          <mxGeometry x="108" y="561" width="144" height="50" as="geometry" />
        </mxCell>
        <mxCell id="FZH1acAaEFo7ZYyXT5wn-66" value="Robot_B" style="html=1;whiteSpace=wrap;fillColor=#ffe6cc;strokeColor=#d79b00;" parent="1" vertex="1">
          <mxGeometry x="284" y="564" width="144" height="50" as="geometry" />
        </mxCell>
        <mxCell id="FZH1acAaEFo7ZYyXT5wn-67" value="Robot_B" style="html=1;whiteSpace=wrap;fillColor=#ffe6cc;strokeColor=#d79b00;" parent="1" vertex="1">
          <mxGeometry x="453" y="568" width="144" height="50" as="geometry" />
        </mxCell>
        <mxCell id="FZH1acAaEFo7ZYyXT5wn-68" value="Robot_B" style="html=1;whiteSpace=wrap;fillColor=#ffe6cc;strokeColor=#d79b00;" parent="1" vertex="1">
          <mxGeometry x="622" y="559" width="144" height="50" as="geometry" />
        </mxCell>
        <mxCell id="FZH1acAaEFo7ZYyXT5wn-74" value="Robot_C" style="html=1;whiteSpace=wrap;fillColor=#ffe6cc;strokeColor=#d79b00;" parent="1" vertex="1">
          <mxGeometry x="988" y="572" width="144" height="50" as="geometry" />
        </mxCell>
        <mxCell id="FZH1acAaEFo7ZYyXT5wn-75" value="Robot_C" style="html=1;whiteSpace=wrap;fillColor=#ffe6cc;strokeColor=#d79b00;" parent="1" vertex="1">
          <mxGeometry x="1155" y="577" width="144" height="50" as="geometry" />
        </mxCell>
        <mxCell id="FZH1acAaEFo7ZYyXT5wn-76" value="Robot_C" style="html=1;whiteSpace=wrap;fillColor=#ffe6cc;strokeColor=#d79b00;" parent="1" vertex="1">
          <mxGeometry x="1331" y="580" width="144" height="50" as="geometry" />
        </mxCell>
        <mxCell id="FZH1acAaEFo7ZYyXT5wn-77" value="Robot_C" style="html=1;whiteSpace=wrap;fillColor=#ffe6cc;strokeColor=#d79b00;" parent="1" vertex="1">
          <mxGeometry x="1500" y="584" width="144" height="50" as="geometry" />
        </mxCell>
        <mxCell id="FZH1acAaEFo7ZYyXT5wn-78" value="Robot_C" style="html=1;whiteSpace=wrap;fillColor=#ffe6cc;strokeColor=#d79b00;" parent="1" vertex="1">
          <mxGeometry x="1669" y="575" width="144" height="50" as="geometry" />
        </mxCell>
        <mxCell id="FZH1acAaEFo7ZYyXT5wn-89" value="UI" style="html=1;whiteSpace=wrap;fillColor=#f8cecc;strokeColor=#b85450;" parent="1" vertex="1">
          <mxGeometry x="288" y="-320" width="110" height="50" as="geometry" />
        </mxCell>
        <mxCell id="FZH1acAaEFo7ZYyXT5wn-90" value="&lt;font style=&quot;font-size: 50px;&quot;&gt;목표&lt;/font&gt;" style="html=1;whiteSpace=wrap;fillColor=#f5f5f5;strokeColor=#666666;fontColor=#333333;" parent="1" vertex="1">
          <mxGeometry x="-1880" y="-673" width="229" height="105" as="geometry" />
        </mxCell>
        <mxCell id="FZH1acAaEFo7ZYyXT5wn-93" value="&lt;font style=&quot;font-size: 50px;&quot;&gt;1. 할당받은 상품을 제작하도록 하기&amp;nbsp;&lt;/font&gt;" style="html=1;whiteSpace=wrap;fillColor=#d5e8d4;strokeColor=#82b366;" parent="1" vertex="1">
          <mxGeometry x="-1880" y="-576" width="942" height="105" as="geometry" />
        </mxCell>
        <mxCell id="FZH1acAaEFo7ZYyXT5wn-94" value="&lt;font style=&quot;font-size: 50px;&quot;&gt;3. 고장시 대처 및 알람 시스템&amp;nbsp;&lt;/font&gt;" style="html=1;whiteSpace=wrap;fillColor=#f8cecc;strokeColor=#b85450;" parent="1" vertex="1">
          <mxGeometry x="-1880" y="-366" width="942" height="105" as="geometry" />
        </mxCell>
        <mxCell id="FZH1acAaEFo7ZYyXT5wn-95" value="&lt;font style=&quot;font-size: 50px;&quot;&gt;4. 라인 생산 및 제거&lt;/font&gt;" style="html=1;whiteSpace=wrap;fillColor=#f8cecc;strokeColor=#b85450;" parent="1" vertex="1">
          <mxGeometry x="-1880" y="-261" width="947" height="105" as="geometry" />
        </mxCell>
        <mxCell id="FZH1acAaEFo7ZYyXT5wn-98" style="edgeStyle=none;curved=1;rounded=0;orthogonalLoop=1;jettySize=auto;html=1;fontSize=12;startSize=8;endSize=8;exitX=1;exitY=0;exitDx=0;exitDy=0;" parent="1" source="FZH1acAaEFo7ZYyXT5wn-96" target="FZH1acAaEFo7ZYyXT5wn-97" edge="1">
          <mxGeometry relative="1" as="geometry" />
        </mxCell>
        <mxCell id="FZH1acAaEFo7ZYyXT5wn-100" style="edgeStyle=none;curved=1;rounded=0;orthogonalLoop=1;jettySize=auto;html=1;fontSize=12;startSize=8;endSize=8;" parent="1" source="FZH1acAaEFo7ZYyXT5wn-96" target="FZH1acAaEFo7ZYyXT5wn-99" edge="1">
          <mxGeometry relative="1" as="geometry" />
        </mxCell>
        <mxCell id="FZH1acAaEFo7ZYyXT5wn-102" style="edgeStyle=none;curved=1;rounded=0;orthogonalLoop=1;jettySize=auto;html=1;fontSize=12;startSize=8;endSize=8;" parent="1" source="FZH1acAaEFo7ZYyXT5wn-96" target="FZH1acAaEFo7ZYyXT5wn-101" edge="1">
          <mxGeometry relative="1" as="geometry" />
        </mxCell>
        <mxCell id="FZH1acAaEFo7ZYyXT5wn-103" style="edgeStyle=none;curved=1;rounded=0;orthogonalLoop=1;jettySize=auto;html=1;fontSize=12;startSize=8;endSize=8;entryX=0;entryY=0.5;entryDx=0;entryDy=0;exitX=1;exitY=0;exitDx=0;exitDy=0;" parent="1" source="FZH1acAaEFo7ZYyXT5wn-96" target="FZH1acAaEFo7ZYyXT5wn-104" edge="1">
          <mxGeometry relative="1" as="geometry">
            <mxPoint x="-775.6922701322114" y="-234.3076359675481" as="targetPoint" />
          </mxGeometry>
        </mxCell>
        <mxCell id="FZH1acAaEFo7ZYyXT5wn-149" style="edgeStyle=none;curved=1;rounded=0;orthogonalLoop=1;jettySize=auto;html=1;fontSize=12;startSize=8;endSize=8;exitX=1;exitY=0.75;exitDx=0;exitDy=0;" parent="1" source="FZH1acAaEFo7ZYyXT5wn-96" target="FZH1acAaEFo7ZYyXT5wn-148" edge="1">
          <mxGeometry relative="1" as="geometry" />
        </mxCell>
        <mxCell id="FZH1acAaEFo7ZYyXT5wn-96" value="&lt;font style=&quot;font-size: 50px;&quot;&gt;2. 다중 생산에 따른 물류 할당하기(APS)&amp;nbsp;&lt;/font&gt;" style="html=1;whiteSpace=wrap;fillColor=#d5e8d4;strokeColor=#82b366;" parent="1" vertex="1">
          <mxGeometry x="-1880" y="-471" width="942" height="105" as="geometry" />
        </mxCell>
        <mxCell id="FZH1acAaEFo7ZYyXT5wn-97" value="&lt;font style=&quot;font-size: 50px;&quot;&gt;1. RR&lt;/font&gt;" style="html=1;whiteSpace=wrap;fillColor=#d5e8d4;strokeColor=#82b366;" parent="1" vertex="1">
          <mxGeometry x="-530" y="-624" width="316" height="105" as="geometry" />
        </mxCell>
        <mxCell id="FZH1acAaEFo7ZYyXT5wn-99" value="&lt;font style=&quot;font-size: 50px;&quot;&gt;2. Fixed&lt;/font&gt;" style="html=1;whiteSpace=wrap;fillColor=#d5e8d4;strokeColor=#82b366;" parent="1" vertex="1">
          <mxGeometry x="-530" y="-521" width="316" height="105" as="geometry" />
        </mxCell>
        <mxCell id="FZH1acAaEFo7ZYyXT5wn-101" value="&lt;font style=&quot;font-size: 50px;&quot;&gt;3. 개수/초를 통한 효율에 따른 분배&lt;/font&gt;" style="html=1;whiteSpace=wrap;fillColor=#f8cecc;strokeColor=#b85450;" parent="1" vertex="1">
          <mxGeometry x="-530" y="-416" width="453" height="128" as="geometry" />
        </mxCell>
        <mxCell id="FZH1acAaEFo7ZYyXT5wn-104" value="&lt;span style=&quot;font-size: 50px;&quot;&gt;각각의 알고리즘에 따른 시간 로그를 남겨서 비교해보기&lt;/span&gt;" style="html=1;whiteSpace=wrap;fillColor=#f5f5f5;strokeColor=#666666;fontColor=#333333;" parent="1" vertex="1">
          <mxGeometry x="-549" y="-902" width="690" height="267" as="geometry" />
        </mxCell>
        <mxCell id="FZH1acAaEFo7ZYyXT5wn-105" value="&lt;font style=&quot;font-size: 20px;&quot;&gt;Json&lt;/font&gt;" style="html=1;whiteSpace=wrap;fillColor=#f5f5f5;strokeColor=#666666;fontColor=#333333;" parent="1" vertex="1">
          <mxGeometry x="-78" y="20" width="94" height="56" as="geometry" />
        </mxCell>
        <mxCell id="FZH1acAaEFo7ZYyXT5wn-106" value="&lt;font style=&quot;font-size: 20px;&quot;&gt;Json&lt;/font&gt;" style="html=1;whiteSpace=wrap;fillColor=#f5f5f5;strokeColor=#666666;fontColor=#333333;" parent="1" vertex="1">
          <mxGeometry x="-931" y="307" width="94" height="56" as="geometry" />
        </mxCell>
        <mxCell id="FZH1acAaEFo7ZYyXT5wn-108" value="&lt;font style=&quot;font-size: 20px;&quot;&gt;Json&lt;/font&gt;" style="html=1;whiteSpace=wrap;fillColor=#f5f5f5;strokeColor=#666666;fontColor=#333333;" parent="1" vertex="1">
          <mxGeometry x="-781" y="317" width="94" height="56" as="geometry" />
        </mxCell>
        <mxCell id="FZH1acAaEFo7ZYyXT5wn-109" value="&lt;font style=&quot;font-size: 20px;&quot;&gt;Json&lt;/font&gt;" style="html=1;whiteSpace=wrap;fillColor=#f5f5f5;strokeColor=#666666;fontColor=#333333;" parent="1" vertex="1">
          <mxGeometry x="-653" y="314" width="94" height="56" as="geometry" />
        </mxCell>
        <mxCell id="FZH1acAaEFo7ZYyXT5wn-111" value="&lt;font style=&quot;font-size: 20px;&quot;&gt;Json&lt;/font&gt;" style="html=1;whiteSpace=wrap;fillColor=#f5f5f5;strokeColor=#666666;fontColor=#333333;" parent="1" vertex="1">
          <mxGeometry x="-493" y="322" width="94" height="56" as="geometry" />
        </mxCell>
        <mxCell id="FZH1acAaEFo7ZYyXT5wn-113" value="&lt;font style=&quot;font-size: 20px;&quot;&gt;Json&lt;/font&gt;" style="html=1;whiteSpace=wrap;fillColor=#f5f5f5;strokeColor=#666666;fontColor=#333333;" parent="1" vertex="1">
          <mxGeometry x="-362" y="329" width="94" height="56" as="geometry" />
        </mxCell>
        <mxCell id="FZH1acAaEFo7ZYyXT5wn-114" value="&lt;font style=&quot;font-size: 20px;&quot;&gt;Json&lt;/font&gt;" style="html=1;whiteSpace=wrap;fillColor=#f5f5f5;strokeColor=#666666;fontColor=#333333;" parent="1" vertex="1">
          <mxGeometry x="-1020" y="550" width="94" height="56" as="geometry" />
        </mxCell>
        <mxCell id="FZH1acAaEFo7ZYyXT5wn-118" value="&lt;font style=&quot;font-size: 20px;&quot;&gt;Json&lt;/font&gt;" style="html=1;whiteSpace=wrap;fillColor=#f5f5f5;strokeColor=#666666;fontColor=#333333;" parent="1" vertex="1">
          <mxGeometry x="-823" y="561" width="94" height="56" as="geometry" />
        </mxCell>
        <mxCell id="FZH1acAaEFo7ZYyXT5wn-120" value="&lt;font style=&quot;font-size: 20px;&quot;&gt;Json&lt;/font&gt;" style="html=1;whiteSpace=wrap;fillColor=#f5f5f5;strokeColor=#666666;fontColor=#333333;" parent="1" vertex="1">
          <mxGeometry x="-664" y="558" width="94" height="56" as="geometry" />
        </mxCell>
        <mxCell id="FZH1acAaEFo7ZYyXT5wn-122" value="&lt;font style=&quot;font-size: 20px;&quot;&gt;Json&lt;/font&gt;" style="html=1;whiteSpace=wrap;fillColor=#f5f5f5;strokeColor=#666666;fontColor=#333333;" parent="1" vertex="1">
          <mxGeometry x="-499" y="561" width="94" height="56" as="geometry" />
        </mxCell>
        <mxCell id="FZH1acAaEFo7ZYyXT5wn-124" value="&lt;font style=&quot;font-size: 20px;&quot;&gt;Json&lt;/font&gt;" style="html=1;whiteSpace=wrap;fillColor=#f5f5f5;strokeColor=#666666;fontColor=#333333;" parent="1" vertex="1">
          <mxGeometry x="-323" y="555" width="94" height="56" as="geometry" />
        </mxCell>
        <mxCell id="FZH1acAaEFo7ZYyXT5wn-126" value="" style="endArrow=classic;startArrow=classic;html=1;rounded=0;fontSize=12;startSize=8;endSize=8;curved=1;exitX=0.5;exitY=0;exitDx=0;exitDy=0;" parent="1" source="FZH1acAaEFo7ZYyXT5wn-114" target="FZH1acAaEFo7ZYyXT5wn-8" edge="1">
          <mxGeometry width="50" height="50" relative="1" as="geometry">
            <mxPoint x="-643" y="512" as="sourcePoint" />
            <mxPoint x="-593" y="462" as="targetPoint" />
          </mxGeometry>
        </mxCell>
        <mxCell id="FZH1acAaEFo7ZYyXT5wn-127" value="" style="endArrow=classic;startArrow=classic;html=1;rounded=0;fontSize=12;startSize=8;endSize=8;curved=1;entryX=0.5;entryY=1;entryDx=0;entryDy=0;" parent="1" source="FZH1acAaEFo7ZYyXT5wn-54" target="FZH1acAaEFo7ZYyXT5wn-114" edge="1">
          <mxGeometry width="50" height="50" relative="1" as="geometry">
            <mxPoint x="-969" y="672" as="sourcePoint" />
            <mxPoint x="-951" y="609" as="targetPoint" />
          </mxGeometry>
        </mxCell>
        <mxCell id="FZH1acAaEFo7ZYyXT5wn-128" value="" style="endArrow=classic;startArrow=classic;html=1;rounded=0;fontSize=12;startSize=8;endSize=8;curved=1;" parent="1" source="FZH1acAaEFo7ZYyXT5wn-118" target="FZH1acAaEFo7ZYyXT5wn-22" edge="1">
          <mxGeometry width="50" height="50" relative="1" as="geometry">
            <mxPoint x="-771.5" y="574" as="sourcePoint" />
            <mxPoint x="-768.5" y="496" as="targetPoint" />
          </mxGeometry>
        </mxCell>
        <mxCell id="FZH1acAaEFo7ZYyXT5wn-129" value="" style="endArrow=classic;startArrow=classic;html=1;rounded=0;fontSize=12;startSize=8;endSize=8;curved=1;entryX=0.5;entryY=1;entryDx=0;entryDy=0;" parent="1" source="FZH1acAaEFo7ZYyXT5wn-56" target="FZH1acAaEFo7ZYyXT5wn-118" edge="1">
          <mxGeometry width="50" height="50" relative="1" as="geometry">
            <mxPoint x="-693" y="676" as="sourcePoint" />
            <mxPoint x="-689" y="602" as="targetPoint" />
          </mxGeometry>
        </mxCell>
        <mxCell id="FZH1acAaEFo7ZYyXT5wn-130" value="" style="endArrow=classic;startArrow=classic;html=1;rounded=0;fontSize=12;startSize=8;endSize=8;curved=1;" parent="1" source="FZH1acAaEFo7ZYyXT5wn-120" target="FZH1acAaEFo7ZYyXT5wn-23" edge="1">
          <mxGeometry width="50" height="50" relative="1" as="geometry">
            <mxPoint x="-766" y="694" as="sourcePoint" />
            <mxPoint x="-766" y="627" as="targetPoint" />
          </mxGeometry>
        </mxCell>
        <mxCell id="FZH1acAaEFo7ZYyXT5wn-131" value="" style="endArrow=classic;startArrow=classic;html=1;rounded=0;fontSize=12;startSize=8;endSize=8;curved=1;entryX=0.5;entryY=1;entryDx=0;entryDy=0;exitX=0.5;exitY=0;exitDx=0;exitDy=0;" parent="1" source="FZH1acAaEFo7ZYyXT5wn-57" target="FZH1acAaEFo7ZYyXT5wn-120" edge="1">
          <mxGeometry width="50" height="50" relative="1" as="geometry">
            <mxPoint x="-605" y="568" as="sourcePoint" />
            <mxPoint x="-601" y="494" as="targetPoint" />
          </mxGeometry>
        </mxCell>
        <mxCell id="FZH1acAaEFo7ZYyXT5wn-132" value="" style="endArrow=classic;startArrow=classic;html=1;rounded=0;fontSize=12;startSize=8;endSize=8;curved=1;" parent="1" source="FZH1acAaEFo7ZYyXT5wn-122" target="FZH1acAaEFo7ZYyXT5wn-24" edge="1">
          <mxGeometry width="50" height="50" relative="1" as="geometry">
            <mxPoint x="-601" y="709" as="sourcePoint" />
            <mxPoint x="-607" y="624" as="targetPoint" />
          </mxGeometry>
        </mxCell>
        <mxCell id="FZH1acAaEFo7ZYyXT5wn-133" value="" style="endArrow=classic;startArrow=classic;html=1;rounded=0;fontSize=12;startSize=8;endSize=8;curved=1;entryX=0.5;entryY=1;entryDx=0;entryDy=0;" parent="1" source="FZH1acAaEFo7ZYyXT5wn-58" target="FZH1acAaEFo7ZYyXT5wn-122" edge="1">
          <mxGeometry width="50" height="50" relative="1" as="geometry">
            <mxPoint x="-441" y="571" as="sourcePoint" />
            <mxPoint x="-437" y="497" as="targetPoint" />
          </mxGeometry>
        </mxCell>
        <mxCell id="FZH1acAaEFo7ZYyXT5wn-134" value="" style="endArrow=classic;startArrow=classic;html=1;rounded=0;fontSize=12;startSize=8;endSize=8;curved=1;entryX=0.5;entryY=1;entryDx=0;entryDy=0;" parent="1" source="FZH1acAaEFo7ZYyXT5wn-59" target="FZH1acAaEFo7ZYyXT5wn-124" edge="1">
          <mxGeometry width="50" height="50" relative="1" as="geometry">
            <mxPoint x="-438" y="700" as="sourcePoint" />
            <mxPoint x="-442" y="627" as="targetPoint" />
          </mxGeometry>
        </mxCell>
        <mxCell id="FZH1acAaEFo7ZYyXT5wn-135" value="" style="endArrow=classic;startArrow=classic;html=1;rounded=0;fontSize=12;startSize=8;endSize=8;curved=1;" parent="1" source="FZH1acAaEFo7ZYyXT5wn-124" target="FZH1acAaEFo7ZYyXT5wn-25" edge="1">
          <mxGeometry width="50" height="50" relative="1" as="geometry">
            <mxPoint x="-255" y="700" as="sourcePoint" />
            <mxPoint x="-266" y="621" as="targetPoint" />
          </mxGeometry>
        </mxCell>
        <mxCell id="FZH1acAaEFo7ZYyXT5wn-136" value="" style="endArrow=classic;startArrow=classic;html=1;rounded=0;fontSize=12;startSize=8;endSize=8;curved=1;" parent="1" source="FZH1acAaEFo7ZYyXT5wn-109" target="FZH1acAaEFo7ZYyXT5wn-2" edge="1">
          <mxGeometry width="50" height="50" relative="1" as="geometry">
            <mxPoint x="-441" y="571" as="sourcePoint" />
            <mxPoint x="-437" y="497" as="targetPoint" />
          </mxGeometry>
        </mxCell>
        <mxCell id="FZH1acAaEFo7ZYyXT5wn-137" value="" style="endArrow=classic;startArrow=classic;html=1;rounded=0;fontSize=12;startSize=8;endSize=8;curved=1;entryX=0.577;entryY=0.998;entryDx=0;entryDy=0;entryPerimeter=0;" parent="1" source="FZH1acAaEFo7ZYyXT5wn-108" target="FZH1acAaEFo7ZYyXT5wn-2" edge="1">
          <mxGeometry width="50" height="50" relative="1" as="geometry">
            <mxPoint x="-725" y="314" as="sourcePoint" />
            <mxPoint x="-729" y="250" as="targetPoint" />
          </mxGeometry>
        </mxCell>
        <mxCell id="FZH1acAaEFo7ZYyXT5wn-138" value="" style="endArrow=classic;startArrow=classic;html=1;rounded=0;fontSize=12;startSize=8;endSize=8;curved=1;entryX=0.5;entryY=1;entryDx=0;entryDy=0;" parent="1" source="FZH1acAaEFo7ZYyXT5wn-106" target="FZH1acAaEFo7ZYyXT5wn-2" edge="1">
          <mxGeometry width="50" height="50" relative="1" as="geometry">
            <mxPoint x="-852" y="301" as="sourcePoint" />
            <mxPoint x="-856" y="237" as="targetPoint" />
          </mxGeometry>
        </mxCell>
        <mxCell id="FZH1acAaEFo7ZYyXT5wn-139" value="" style="endArrow=classic;startArrow=classic;html=1;rounded=0;fontSize=12;startSize=8;endSize=8;curved=1;" parent="1" source="FZH1acAaEFo7ZYyXT5wn-8" target="FZH1acAaEFo7ZYyXT5wn-106" edge="1">
          <mxGeometry width="50" height="50" relative="1" as="geometry">
            <mxPoint x="-955" y="427" as="sourcePoint" />
            <mxPoint x="-959" y="363" as="targetPoint" />
          </mxGeometry>
        </mxCell>
        <mxCell id="FZH1acAaEFo7ZYyXT5wn-140" value="" style="endArrow=classic;startArrow=classic;html=1;rounded=0;fontSize=12;startSize=8;endSize=8;curved=1;" parent="1" source="FZH1acAaEFo7ZYyXT5wn-22" target="FZH1acAaEFo7ZYyXT5wn-108" edge="1">
          <mxGeometry width="50" height="50" relative="1" as="geometry">
            <mxPoint x="-763" y="434" as="sourcePoint" />
            <mxPoint x="-767" y="370" as="targetPoint" />
          </mxGeometry>
        </mxCell>
        <mxCell id="FZH1acAaEFo7ZYyXT5wn-141" value="" style="endArrow=classic;startArrow=classic;html=1;rounded=0;fontSize=12;startSize=8;endSize=8;curved=1;entryX=0.431;entryY=0.949;entryDx=0;entryDy=0;entryPerimeter=0;" parent="1" source="FZH1acAaEFo7ZYyXT5wn-24" target="FZH1acAaEFo7ZYyXT5wn-111" edge="1">
          <mxGeometry width="50" height="50" relative="1" as="geometry">
            <mxPoint x="-444" y="437" as="sourcePoint" />
            <mxPoint x="-448" y="373" as="targetPoint" />
          </mxGeometry>
        </mxCell>
        <mxCell id="FZH1acAaEFo7ZYyXT5wn-142" value="" style="endArrow=classic;startArrow=classic;html=1;rounded=0;fontSize=12;startSize=8;endSize=8;curved=1;exitX=0.5;exitY=0;exitDx=0;exitDy=0;" parent="1" source="FZH1acAaEFo7ZYyXT5wn-23" target="FZH1acAaEFo7ZYyXT5wn-109" edge="1">
          <mxGeometry width="50" height="50" relative="1" as="geometry">
            <mxPoint x="-610" y="447" as="sourcePoint" />
            <mxPoint x="-614" y="383" as="targetPoint" />
          </mxGeometry>
        </mxCell>
        <mxCell id="FZH1acAaEFo7ZYyXT5wn-143" value="" style="endArrow=classic;startArrow=classic;html=1;rounded=0;fontSize=12;startSize=8;endSize=8;curved=1;entryX=0.5;entryY=1;entryDx=0;entryDy=0;" parent="1" source="FZH1acAaEFo7ZYyXT5wn-25" target="FZH1acAaEFo7ZYyXT5wn-113" edge="1">
          <mxGeometry width="50" height="50" relative="1" as="geometry">
            <mxPoint x="-274" y="446" as="sourcePoint" />
            <mxPoint x="-278" y="382" as="targetPoint" />
          </mxGeometry>
        </mxCell>
        <mxCell id="FZH1acAaEFo7ZYyXT5wn-144" value="" style="endArrow=classic;startArrow=classic;html=1;rounded=0;fontSize=12;startSize=8;endSize=8;curved=1;entryX=0.564;entryY=0.929;entryDx=0;entryDy=0;entryPerimeter=0;" parent="1" source="FZH1acAaEFo7ZYyXT5wn-113" target="FZH1acAaEFo7ZYyXT5wn-2" edge="1">
          <mxGeometry width="50" height="50" relative="1" as="geometry">
            <mxPoint x="-333" y="329" as="sourcePoint" />
            <mxPoint x="-337" y="265" as="targetPoint" />
          </mxGeometry>
        </mxCell>
        <mxCell id="FZH1acAaEFo7ZYyXT5wn-145" value="" style="endArrow=classic;startArrow=classic;html=1;rounded=0;fontSize=12;startSize=8;endSize=8;curved=1;entryX=0.5;entryY=1;entryDx=0;entryDy=0;exitX=0.5;exitY=0;exitDx=0;exitDy=0;" parent="1" source="FZH1acAaEFo7ZYyXT5wn-111" target="FZH1acAaEFo7ZYyXT5wn-2" edge="1">
          <mxGeometry width="50" height="50" relative="1" as="geometry">
            <mxPoint x="-450" y="314" as="sourcePoint" />
            <mxPoint x="-454" y="250" as="targetPoint" />
          </mxGeometry>
        </mxCell>
        <mxCell id="FZH1acAaEFo7ZYyXT5wn-146" value="" style="endArrow=classic;startArrow=classic;html=1;rounded=0;fontSize=12;startSize=8;endSize=8;curved=1;entryX=0.5;entryY=0;entryDx=0;entryDy=0;" parent="1" source="FZH1acAaEFo7ZYyXT5wn-105" target="FZH1acAaEFo7ZYyXT5wn-2" edge="1">
          <mxGeometry width="50" height="50" relative="1" as="geometry">
            <mxPoint x="-352" y="349" as="sourcePoint" />
            <mxPoint x="-597" y="256" as="targetPoint" />
          </mxGeometry>
        </mxCell>
        <mxCell id="FZH1acAaEFo7ZYyXT5wn-147" value="" style="endArrow=classic;startArrow=classic;html=1;rounded=0;fontSize=12;startSize=8;endSize=8;curved=1;exitX=0;exitY=1;exitDx=0;exitDy=0;" parent="1" source="FZH1acAaEFo7ZYyXT5wn-1" target="FZH1acAaEFo7ZYyXT5wn-105" edge="1">
          <mxGeometry width="50" height="50" relative="1" as="geometry">
            <mxPoint x="435" y="-71" as="sourcePoint" />
            <mxPoint x="-101" y="69" as="targetPoint" />
          </mxGeometry>
        </mxCell>
        <mxCell id="FZH1acAaEFo7ZYyXT5wn-148" value="&lt;font style=&quot;font-size: 50px;&quot;&gt;4. 우선순위 할당&lt;/font&gt;" style="html=1;whiteSpace=wrap;fillColor=#f8cecc;strokeColor=#b85450;" parent="1" vertex="1">
          <mxGeometry x="-530" y="-284" width="453" height="128" as="geometry" />
        </mxCell>
        <mxCell id="8wEKsDnJnCkrdaSqWPoq-57" value="&lt;span style=&quot;font-size: 50px;&quot;&gt;RoBot_A&lt;/span&gt;" style="html=1;whiteSpace=wrap;" vertex="1" parent="1">
          <mxGeometry x="-1116" y="898" width="942" height="105" as="geometry" />
        </mxCell>
        <mxCell id="8wEKsDnJnCkrdaSqWPoq-60" value="&lt;span style=&quot;font-size: 50px;&quot;&gt;dog : 2, cat : 12, apple 6&lt;/span&gt;" style="html=1;whiteSpace=wrap;" vertex="1" parent="1">
          <mxGeometry x="-1116" y="1003" width="942" height="105" as="geometry" />
        </mxCell>
        <mxCell id="8wEKsDnJnCkrdaSqWPoq-61" value="&lt;span style=&quot;font-size: 50px;&quot;&gt;RoBot_B&lt;/span&gt;" style="html=1;whiteSpace=wrap;" vertex="1" parent="1">
          <mxGeometry x="-91" y="898" width="942" height="105" as="geometry" />
        </mxCell>
        <mxCell id="8wEKsDnJnCkrdaSqWPoq-62" value="&lt;span style=&quot;font-size: 50px;&quot;&gt;dog : 12, cat : 2, apple 6&lt;/span&gt;" style="html=1;whiteSpace=wrap;" vertex="1" parent="1">
          <mxGeometry x="-91" y="1003" width="942" height="105" as="geometry" />
        </mxCell>
        <mxCell id="8wEKsDnJnCkrdaSqWPoq-63" value="&lt;span style=&quot;font-size: 50px;&quot;&gt;RoBot_C&lt;/span&gt;" style="html=1;whiteSpace=wrap;" vertex="1" parent="1">
          <mxGeometry x="955" y="898" width="942" height="105" as="geometry" />
        </mxCell>
        <mxCell id="8wEKsDnJnCkrdaSqWPoq-64" value="&lt;span style=&quot;font-size: 50px;&quot;&gt;dog : 6, cat : 6, apple 6&lt;/span&gt;" style="html=1;whiteSpace=wrap;" vertex="1" parent="1">
          <mxGeometry x="955" y="1003" width="942" height="105" as="geometry" />
        </mxCell>
      </root>
    </mxGraphModel>
  </diagram>
</mxfile>
